# xmcd
#
# Track frame offsets:
#	150
#	6286
#	15339
#	28772
#	49264
#	75098
#	97219
#	113127
#	132450
#	149347
#	168152
#	180075
#	199840
#	217419
#	230354
#	248618
#	262983
#	277442
#	299338
#	320672
#	343142
#
# Disc length: 4750 seconds
#
# Revision: 0
# Processed by: cddbd v1.5.1PL0 Copyright (c) Steve Scherf et al.
# Submitted via: EasyCDDAExtractor 8.0.2.1
#
DISCID=37128c15
DTITLE=Jay-Z - Prelude To The Black Album
DYEAR=2003
DGENRE=Hip-Hop
TTITLE0=Intro
TTITLE1=Pump It Up (Freestyle)
TTITLE2=Black Album Freestyle
TTITLE3=December 4th (Produced By Just Blaze)
TTITLE4=If Hov Can't Remix (Featuring 50 Cent)
TTITLE5=What More Can I Say
TTITLE6=Beautiful
TTITLE7=Change Clothes (Featuring Pharrell)
TTITLE8=This Life Forever
TTITLE9=Encore
TTITLE10=Lazer In Ya Ear (Freestyle)
TTITLE11=Moment Of Clarity
TTITLE12=99 Problems
TTITLE13=Interlude (Public Service Announcement)
TTITLE14=Justify My Thug
TTITLE15=Lucifer (Produced By Kanye West)
TTITLE16=Bump Bump Bump (Freestyle)
TTITLE17=Allure
TTITLE18=My First Song
TTITLE19=Back In The Day (Featuring Missy E.)
TTITLE20=Stop
EXTD=
EXTT0=
EXTT1=
EXTT2=
EXTT3=
EXTT4=
EXTT5=
EXTT6=
EXTT7=
EXTT8=
EXTT9=
EXTT10=
EXTT11=
EXTT12=
EXTT13=
EXTT14=
EXTT15=
EXTT16=
EXTT17=
EXTT18=
EXTT19=
EXTT20=
PLAYORDER=
